# xmcd
#
# Track frame offsets:
#	150
#	14923
#	32083
#	52385
#	66069
#	85181
#	97280
#	119473
#	133579
#	148481
#	163927
#	175011
#	189831
#	203388
#
# Disc length: 2916 seconds
#
# Revision: 0
# Processed by: cddbd v1.5.1PL0 Copyright (c) Steve Scherf et al.
# Submitted via: EasyCDDAExtractor 7.1.2.1
#
DISCID=d20b620e
DTITLE=Various Artist - Aprés Schihütten Party - DISK 2
DYEAR=2003
DGENRE=Club
TTITLE0=Orig.Suedtiroler Spitzbuam - Hal-le-lu-ja
TTITLE1=Goldried Quintett - Der Paul und sein Gaul
TTITLE2=Horst Chmela - Her mit den Hennen (...der Gockola ist da)
TTITLE3=Ursprung Buam - Don Camillo und Peppone
TTITLE4=Die Mooskirchner - Koa Hiatamadl
TTITLE5=Die Mooskirchner - Auf dem Alm
TTITLE6=Chris Marlow - Holz vor der Huettn
TTITLE7=Bartl Gensbichler und seine Shilehrermusi - Hallo Kraxenbuaba
TTITLE8=Alpenrocker - Fürstenfeld
TTITLE9=Zipfi Zapfi Buam - Party, Party, Party
TTITLE10=Kärtner Spatzen - Steierman San very good
TTITLE11=Muehltaler Musikanten - Zillertaler Hochzeitsmarsch
TTITLE12=Zipfi Zapfi Buam - Wenn wir rocken, gluehn die Socken
TTITLE13=Stefan Peters - Sierra Madre
EXTD=YEAR: 2003\n
EXTT0=
EXTT1=
EXTT2=
EXTT3=
EXTT4=
EXTT5=
EXTT6=
EXTT7=
EXTT8=
EXTT9=
EXTT10=
EXTT11=
EXTT12=
EXTT13=
PLAYORDER=
